# xmcd
#
# Track frame offsets:
# 150
# 15809
# 38997
# 55798
# 73352
# 88568
# 100883
# 111401
# 127816
# 144596
# 155140
# 177660
# 196347
# 203962
# 229787
# 241581
# 250789
# 266735
# 280787
# 307993
#
# Disc length: 4239 seconds
#
#
# Revision: 0
# Processed by: cddbd v1.5.2PL0 Copyright (c) Steve Scherf et al.
# Submitted via: FreeRIP 2.943 
#
DISCID=19108d14
DTITLE=Various Artist - Attack of the...Worldeater [summer 2006 label sampler]
DYEAR=2006
DGENRE=Sonata
TTITLE0=Bugs and Rats - Ban on Smoking
TTITLE1=Returner - Dealing with this Death
TTITLE2=Decomposed - Disemboweled
TTITLE3=Northern Liberties - Midnight Train to the Dogfood Factory
TTITLE4=Syzslak - Fallen Hand
TTITLE5=Slumlord Philadelphia - Street Sweeper Christ
TTITLE6=Kiss Kiss Kill - Star Date
TTITLE7=Syzslak - Mars
TTITLE8=Hellblock 6 - Axis of Evil
TTITLE9=Myles of Destruction - King of Broken Things
TTITLE10=Hellblock 6 - Lies of the Eyes
TTITLE11=Northern Liberties - Chromosomatic
TTITLE12=Bitchslicer - Evil Awakening
TTITLE13=Oneiric Imperium - Cherico
TTITLE14=Bitchslicer - Porn of the Dead-static mix
TTITLE15=Justin Duerr and the Etheric Phoenix of Love - Understanding
TTITLE16=Skeleton Proof Tanks - Serpent of the Deep
TTITLE17=Twentyagon - Attack of the Math Bear
TTITLE18=Humanasaur - Self Doubt
TTITLE19=Eulogy - Blind Man
EXTD=ripped/spread by cleve
EXTT0=
EXTT1=
EXTT2=
EXTT3=
EXTT4=
EXTT5=
EXTT6=
EXTT7=
EXTT8=
EXTT9=
EXTT10=
EXTT11=
EXTT12=
EXTT13=
EXTT14=
EXTT15=
EXTT16=
EXTT17=
EXTT18=
EXTT19=
PLAYORDER=
